#!OML:ASF E:\motion texture\Top Level 1\Subject 1\Session 1\male.ASF
:FULLY-SPECIFIED
:DEGREES
130
root 13.9965 17.6816 6.97766 163.331 -84.909 -160.608
lowerback -0.574365 -0.645903 0.77679
upperback -1.94447 -0.864276 1.45065
thorax -1.65863 -0.442657 1.05884
lowerneck -9.40535 -9.46103 -12.2965
upperneck 21.7114 -11.5845 0.692135
head 9.17052 -6.51209 0.899281
rclavicle 8.36138e-015 -1.39149e-014
rhumerus -26.5212 10.0097 -83.5024
rradius 89.9248
rwrist -22.0235
rhand -9.56476 -42.4037
rfingers 7.12502
rthumb 16.4027 -71.7302
lclavicle 8.36138e-015 -1.39149e-014
lhumerus -30.8751 9.03405 82.9739
lradius 87.4083
lwrist 41.5429
lhand -15.0644 45.2855
lfingers 7.12502
lthumb 11.1027 74.9718
rfemur -18.7971 -3.68351 20.6652
rtibia 68.9691
rfoot 6.76801 -21.601
rtoes 10.3043
lfemur -15.3674 -3.75619 -17.9776
ltibia 23.4807
lfoot -8.291 5.85987
ltoes -2.3442
131
root 13.8467 17.7045 6.99196 163.392 -84.8874 -160.759
lowerback -0.568971 -0.718978 0.847175
upperback -1.8945 -0.961538 1.55708
thorax -1.60858 -0.491784 1.12892
lowerneck -9.78035 -8.95004 -11.7927
upperneck 22.0927 -10.7311 -0.185109
head 9.23289 -6.17585 0.614132
rclavicle 1.6524e-015 -1.0138e-014
rhumerus -26.0203 9.89616 -82.8635
rradius 91.4022
rwrist -21.5252
rhand -9.48053 -41.8387
rfingers 7.12502
rthumb 16.4838 -71.1585
lclavicle 1.6524e-015 -1.0138e-014
lhumerus -30.294 8.36707 82.8081
lradius 88.0374
lwrist 40.2564
lhand -14.8119 45.0668
lfingers 7.12502
lthumb 11.3462 74.7399
rfemur -20.0333 -4.14699 20.6781
rtibia 69.6182
rfoot 6.13217 -21.9666
rtoes 10.6065
lfemur -14.361 -3.89795 -18.1573
ltibia 22.9056
lfoot -8.59303 5.99886
ltoes -2.3455
132
root 13.6982 17.7272 7.00581 163.759 -84.8931 -161.193
lowerback -0.556889 -0.795958 0.889891
upperback -1.85871 -1.06406 1.65424
thorax -1.5763 -0.543246 1.20525
lowerneck -10.1194 -8.44851 -11.3058
upperneck 22.4382 -9.89742 -1.04
head 9.29264 -5.85076 0.335708
rclavicle 2.27981e-015 -1.11319e-014
rhumerus -25.4802 9.66036 -82.1835
rradius 92.9949
rwrist -20.9375
rhand -9.56676 -41.2122
rfingers 7.12502
rthumb 16.4008 -70.5388
lclavicle 2.27981e-015 -1.11319e-014
lhumerus -29.7072 7.72224 82.6162
lradius 88.7686
lwrist 38.624
lhand -14.3661 44.5964
lfingers 7.12502
lthumb 11.7761 74.2454
rfemur -21.2587 -4.60628 20.663
rtibia 70.0721
rfoot 5.5365 -22.1226
rtoes 10.626
lfemur -13.3732 -4.04492 -18.3754
ltibia 22.2998
lfoot -8.87091 6.12674
ltoes -2.29434
133
root 13.5509 17.7491 7.01924 164.507 -84.9247 -161.988
lowerback -0.537161 -0.871726 0.90465
upperback -1.82877 -1.16489 1.73376
thorax -1.55393 -0.593528 1.27933
lowerneck -10.4796 -7.9679 -10.8268
upperneck 22.7791 -9.0935 -1.86997
head 9.37034 -5.54018 0.0590311
rclavicle -1.12562e-014 1.70955e-014
rhumerus -24.8833 9.299 -81.4672
rradius 94.6794
rwrist -20.2962
rhand -9.82341 -40.548
rfingers 7.12502
rthumb 16.1537 -69.8948
lclavicle -1.12562e-014 1.70955e-014
lhumerus -29.0989 7.08069 82.3966
lradius 89.6017
lwrist 36.6732
lhand -13.8151 43.9142
lfingers 7.12502
lthumb 12.3074 73.532
rfemur -22.4649 -5.05599 20.6137
rtibia 70.3314
rfoot 4.93758 -22.0823
rtoes 10.5505
lfemur -12.4025 -4.18323 -18.6376
ltibia 21.6664
lfoot -9.12644 6.23423
ltoes -2.20644
134
root 13.4048 17.7699 7.03234 165.601 -84.9809 -163.113
lowerback -0.486976 -0.965155 0.871175
upperback -1.85594 -1.28841 1.82008
thorax -1.60544 -0.654656 1.38902
lowerneck -10.7074 -7.48082 -10.404
upperneck 23.0923 -8.29773 -2.67072
head 9.43048 -5.23934 -0.19659
rclavicle 2.07854e-014 3.97569e-016
rhumerus -24.3172 8.90533 -80.727
rradius 96.4335
rwrist -19.6284
rhand -10.2337 -39.8491
rfingers 7.12502
rthumb 15.7586 -69.2276
lclavicle 2.07854e-014 3.97569e-016
lhumerus -28.6006 6.48907 82.1392
lradius 90.5582
lwrist 34.4266
lhand -13.2791 43.0982
lfingers 7.12502
lthumb 12.8241 72.6843
rfemur -23.647 -5.49379 20.5365
rtibia 70.4028
rfoot 4.30379 -21.8667
rtoes 10.3896
lfemur -11.4464 -4.30493 -18.9383
ltibia 21.0057
lfoot -9.3583 6.31456
ltoes -2.09374
135
root 13.26 17.789 7.04481 166.969 -85.0502 -164.496
lowerback -0.428953 -1.05935 0.806292
upperback -1.8955 -1.41279 1.90348
thorax -1.67288 -0.715703 1.51394
lowerneck -10.9471 -7.01348 -9.99698
upperneck 23.4177 -7.52849 -3.45259
head 9.5107 -4.95326 -0.450567
rclavicle -1.43746e-014 6.36111e-015
rhumerus -23.6915 8.42459 -79.9499
rradius 98.2179
rwrist -18.9349
rhand -10.7326 -39.1695
rfingers 7.12502
rthumb 15.2781 -68.5852
lclavicle -1.43746e-014 6.36111e-015
lhumerus -28.1108 5.91849 81.8541
lradius 91.6067
lwrist 31.8854
lhand -12.7776 42.1845
lfingers 7.12502
lthumb 13.3076 71.7396
rfemur -24.8027 -5.90771 20.4452
rtibia 70.2882
rfoot 3.61303 -21.5032
rtoes 10.1311
lfemur -10.515 -4.39625 -19.2599
ltibia 20.3367
lfoot -9.56975 6.36429
ltoes -1.99783
136
root 13.1165 17.8062 7.05669 168.483 -85.1408 -166.009
lowerback -0.374298 -1.1491 0.715542
upperback -1.93684 -1.53145 1.98273
thorax -1.73918 -0.77338 1.6493
lowerneck -11.1618 -6.57488 -9.61335
upperneck 23.7248 -6.80688 -4.18935
head 9.59421 -4.68802 -0.692396
rclavicle -1.04113e-014 2.82274e-014
rhumerus -23.0097 7.83958 -79.1298
rradius 100.011
rwrist -18.2168
rhand -11.2793 -38.5036
rfingers 7.12502
rthumb 14.7515 -67.9587
lclavicle -1.04113e-014 2.82274e-014
lhumerus -27.5922 5.34225 81.5522
lradius 92.7359
lwrist 29.1169
lhand -12.3806 41.2499
lfingers 7.12502
lthumb 13.6902 70.7796
rfemur -25.9232 -6.30354 20.3496
rtibia 69.9857
rfoot 2.86709 -21.0363
rtoes 9.85842
lfemur -9.61569 -4.4654 -19.5905
ltibia 19.6818
lfoot -9.77345 6.37759
ltoes -1.91988
137
root 12.9743 17.8214 7.06792 170.003 -85.2464 -167.517
lowerback -0.325858 -1.24281 0.614421
upperback -1.97376 -1.65571 2.06645
thorax -1.79623 -0.833567 1.79517
lowerneck -11.3436 -6.16442 -9.27498
upperneck 24.0021 -6.13064 -4.8733
head 9.67495 -4.44264 -0.914651
rclavicle -2.48481e-015 -7.95139e-015
rhumerus -22.2562 7.18748 -78.2751
rradius 101.782
rwrist -17.4827
rhand -11.8812 -37.8447
rfingers 7.12502
rthumb 14.1714 -67.3414
lclavicle -2.48481e-015 -7.95139e-015
lhumerus -27.0466 4.78113 81.2273
lradius 93.9421
lwrist 26.1976
lhand -12.2318 40.3362
lfingers 7.12502
lthumb 13.8336 69.8562
rfemur -27.0036 -6.6719 20.2652
rtibia 69.4977
rfoot 2.09412 -20.5199
rtoes 9.53075
lfemur -8.7479 -4.51329 -19.9118
ltibia 19.0459
lfoot -9.97525 6.36377
ltoes -1.86744
138
root 12.8333 17.8344 7.0785 171.404 -85.37 -168.895
lowerback -0.264858 -1.34179 0.523894
upperback -2.01815 -1.78674 2.14809
thorax -1.86742 -0.897181 1.93383
lowerneck -11.5025 -5.78062 -8.9688
upperneck 24.2689 -5.49945 -5.50189
head 9.75923 -4.21596 -1.11901
rclavicle 1.71079e-014 -3.22031e-014
rhumerus -21.4594 6.46174 -77.4061
rradius 103.515
rwrist -16.7298
rhand -12.451 -37.256
rfingers 7.12502
rthumb 13.6223 -66.7903
lclavicle 1.71079e-014 -3.22031e-014
lhumerus -26.4805 4.2442 80.8597
lradius 95.2002
lwrist 23.1744
lhand -12.2793 39.4706
lfingers 7.12502
lthumb 13.7878 68.9937
rfemur -28.037 -7.01326 20.1997
rtibia 68.8246
rfoot 1.25536 -19.9872
rtoes 9.03736
lfemur -7.91485 -4.55061 -20.2119
ltibia 18.44
lfoot -10.1813 6.32786
ltoes -1.83546
139
root 12.6935 17.8452 7.08824 172.707 -85.5011 -170.164
lowerback -0.192689 -1.4602 0.430971
upperback -2.09969 -1.94342 2.2435
thorax -1.98097 -0.973349 2.08985
lowerneck -11.5062 -5.40171 -8.74095
upperneck 24.4822 -4.89798 -6.06174
head 9.80684 -4.00167 -1.28509
rclavicle -1.717e-014 -3.97569e-015
rhumerus -20.6838 5.75078 -76.5388
rradius 105.194
rwrist -15.9899
rhand -13.0848 -36.6759
rfingers 7.12502
rthumb 13.0115 -66.2501
lclavicle -1.717e-014 -3.97569e-015
lhumerus -25.9785 3.76999 80.4393
lradius 96.5119
lwrist 20.103
lhand -12.478 38.5654
lfingers 7.12502
lthumb 13.5964 68.1014
rfemur -29.028 -7.31378 20.1524
rtibia 67.9794
rfoot 0.356084 -19.4735
rtoes 8.36319
lfemur -7.11361 -4.57417 -20.4895
ltibia 17.8584
lfoot -10.3904 6.273
ltoes -1.81407
140
root 12.5546 17.8538 7.09721 173.867 -85.6504 -171.282
lowerback -0.108427 -1.583 0.355691
upperback -2.17975 -2.10572 2.33409
thorax -2.09945 -1.0524 2.23207
lowerneck -11.5209 -5.06074 -8.54855
upperneck 24.6893 -4.35242 -6.56191
head 9.86266 -3.80967 -1.43326
rclavicle -1.54804e-014 2.06736e-014
rhumerus -19.8654 4.98266 -75.6733
rradius 106.796
rwrist -15.2506
rhand -13.7957 -36.1394
rfingers 7.12502
rthumb 12.3261 -65.7561
lclavicle -1.54804e-014 2.06736e-014
lhumerus -25.4407 3.31187 79.9739
lradius 97.8445
lwrist 17.0437
lhand -12.7832 37.5866
lfingers 7.12502
lthumb 13.3021 67.1421
rfemur -29.9648 -7.58971 20.1195
rtibia 66.9591
rfoot -0.584677 -19.0118
rtoes 7.50467
lfemur -6.3489 -4.5941 -20.7438
ltibia 17.3138
lfoot -10.6021 6.20567
ltoes -1.78619
141
root 12.4164 17.8601 7.10533 174.912 -85.8142 -172.274
lowerback -0.0173991 -1.70936 0.293526
upperback -2.26343 -2.27262 2.42224
thorax -2.22502 -1.13376 2.36553
lowerneck -11.5395 -4.75463 -8.38762
upperneck 24.8862 -3.8593 -7.00804
head 9.9222 -3.63834 -1.5648
rclavicle -3.90115e-015 -7.95139e-016
rhumerus -19.0244 4.17221 -74.817
rradius 108.305
rwrist -14.5126
rhand -14.5847 -35.6381
rfingers 7.12502
rthumb 11.5653 -65.2989
lclavicle -3.90115e-015 -7.95139e-016
lhumerus -24.8653 2.87708 79.4731
lradius 99.1783
lwrist 14.0642
lhand -13.0823 36.5351
lfingers 7.12502
lthumb 13.0138 66.1092
rfemur -30.8474 -7.84148 20.097
rtibia 65.7717
rfoot -1.54349 -18.6284
rtoes 6.56029
lfemur -5.62059 -4.61417 -20.9766
ltibia 16.8034
lfoot -10.815 6.13693
ltoes -1.76833
142
root 12.2788 17.8641 7.11266 175.901 -85.9915 -173.202
lowerback 0.0769727 -1.82595 0.244127
upperback -2.33729 -2.4264 2.4985
thorax -2.34311 -1.20868 2.47993
lowerneck -11.6047 -4.49842 -8.23539
upperneck 25.083 -3.43555 -7.40754
head 9.99519 -3.49432 -1.68929
rclavicle 1.99033e-014 -3.49861e-014
rhumerus -18.1621 3.27983 -73.9692
rradius 109.715
rwrist -13.7628
rhand -15.4941 -35.1412
rfingers 7.12502
rthumb 10.6882 -64.8494
lclavicle 1.99033e-014 -3.49861e-014
lhumerus -24.1978 2.44107 78.9563
lradius 100.463
lwrist 11.1441
lhand -13.5276 35.4695
lfingers 7.12502
lthumb 12.5846 65.0705
rfemur -31.6669 -8.07715 20.0773
rtibia 64.4174
rfoot -2.47298 -18.3477
rtoes 5.62987
lfemur -4.92726 -4.63398 -21.1934
ltibia 16.329
lfoot -11.0376 6.06559
ltoes -1.7841
143
root 12.1415 17.866 7.11923 176.903 -86.1786 -174.131
lowerback 0.167583 -1.92975 0.209203
upperback -2.39526 -2.56314 2.5581
thorax -2.44418 -1.27537 2.56877
lowerneck -11.7359 -4.29282 -8.08961
upperneck 25.2806 -3.08059 -7.75511
head 10.0847 -3.37638 -1.80539
rclavicle -7.62836e-015 -1.03368e-014
rhumerus -17.2734 2.2967 -73.1405
rradius 111.013
rwrist -13.002
rhand -16.5579 -34.644
rfingers 7.12502
rthumb 9.66195 -64.4024
lclavicle -7.62836e-015 -1.03368e-014
lhumerus -23.4231 2.0007 78.4247
lradius 101.676
lwrist 8.31211
lhand -14.0673 34.4386
lfingers 7.12502
lthumb 12.0642 64.0708
rfemur -32.4223 -8.30059 20.0553
rtibia 62.8999
rfoot -3.33332 -18.1739
rtoes 4.77253
lfemur -4.26941 -4.65941 -21.3996
ltibia 15.89
lfoot -11.2687 6.00049
ltoes -1.84407
144
root 12.0045 17.8657 7.12496 177.911 -86.3685 -175.053
lowerback 0.245315 -2.00987 0.178706
upperback -2.44188 -2.66855 2.60336
thorax -2.52813 -1.32657 2.63929
lowerneck -11.8992 -4.14135 -7.93532
upperneck 25.4672 -2.80519 -8.06419
head 10.1783 -3.28851 -1.91976
rclavicle 1.35174e-014 2.22639e-014
rhumerus -16.402 1.21216 -72.3225
rradius 112.206
rwrist -12.2323
rhand -17.7382 -34.1507
rfingers 7.12502
rthumb 8.52299 -63.9587
lclavicle 1.35174e-014 2.22639e-014
lhumerus -22.5337 1.53149 77.9019
lradius 102.799
lwrist 5.59828
lhand -14.7048 33.4681
lfingers 7.12502
lthumb 11.4495 63.1354
rfemur -33.1129 -8.50715 20.0333
rtibia 61.2196
rfoot -4.09404 -18.1118
rtoes 4.18999
lfemur -3.64912 -4.69061 -21.5917
ltibia 15.4904
lfoot -11.5149 5.94089
ltoes -1.93894
